<svg xmlns="http://www.w3.org/2000/svg" xmlns:xlink="http://www.w3.org/1999/xlink" version="1.1" id="Layer_1" x="0px" y="0px" width="100px" height="100px" viewBox="0 0 100 100" style="enable-background:new 0 0 100 100;" xml:space="preserve">
<g>
	<path style="fill:#010101;" d="M69.772,43.375c0-1.939-0.285-3.799-0.806-5.572L56.353,62.091   C64.156,59.442,69.772,52.071,69.772,43.375z"/>
	<path style="fill:#010101;" d="M62.078,18.584l-3.139,6.04c-2.17-0.438-4.405-0.786-6.793-0.906   c-0.699-0.071-1.407-0.113-2.131-0.113c0,0-0.009,0-0.016,0l0,0c-0.726,0-1.439,0.042-2.147,0.113   c-26.972,1.289-39.823,25.86-39.823,25.86s8.458,16.16,26.022,22.965l-2.514,4.854l7.75,4.019l30.545-58.807L62.078,18.584z    M37.442,66.021c-10.744-3.811-17.663-11.79-20.959-16.446c2.666-3.771,7.742-9.733,15.297-13.89c-1,2.368-1.549,4.964-1.549,7.689   c0,7.383,4.043,13.809,10.036,17.208L37.442,66.021z M43.146,47.624c-3.081,0-5.58-2.5-5.58-5.587c0-3.08,2.5-5.58,5.58-5.58   c3.083,0,5.583,2.5,5.583,5.58C48.73,45.124,46.23,47.624,43.146,47.624z"/>
	<path style="fill:#010101;" d="M72.953,30.126l-3.337,6.434c6.761,4.09,11.401,9.514,13.895,13.026   c-4.143,5.874-14.086,17.076-30.235,18.432l-3.889,7.499c0.204,0.008,0.403,0.028,0.612,0.028   c28.476,0,41.973-25.967,41.973-25.967S85.752,37.795,72.953,30.126z"/>
</g>
</svg>